<svg width="174" height="130" viewBox="0 0 174 130" fill="none" xmlns="http://www.w3.org/2000/svg">
<path d="M44 260C-27.797 260 -86 201.797 -86 130C-86 58.203 -27.797 -8.82083e-06 44 -5.68248e-06C115.797 -2.54413e-06 174 58.203 174 130C174 201.797 115.797 260 44 260ZM44 18.7242C-17.4559 18.7242 -67.2758 68.5441 -67.2758 130C-67.2758 191.456 -17.4559 241.276 44 241.276C105.456 241.276 155.276 191.456 155.276 130C155.276 68.5441 105.456 18.7242 44 18.7242Z" fill="#0E58FF" fill-opacity="0.2"/>
<path d="M32 245C-26.5422 245 -74 197.542 -74 139C-74 80.4578 -26.5422 33 32 33C90.5422 33 138 80.4578 138 139C138 197.542 90.5422 245 32 245ZM32 48.2674C-18.1102 48.2674 -58.7326 88.8898 -58.7326 139C-58.7326 189.11 -18.1102 229.733 32 229.733C82.1102 229.733 122.733 189.11 122.733 139C122.733 88.8898 82.1102 48.2674 32 48.2674Z" fill="#0E58FF" fill-opacity="0.2"/>
<path d="M20 233C-24.1828 233 -60 197.183 -60 153C-60 108.817 -24.1828 73 20 73C64.1828 73 100 108.817 100 153C100 197.183 64.1828 233 20 233ZM20 84.5226C-17.819 84.5226 -48.4774 115.181 -48.4774 153C-48.4774 190.819 -17.819 221.477 20 221.477C57.819 221.477 88.4774 190.819 88.4774 153C88.4774 115.181 57.819 84.5226 20 84.5226Z" fill="#0E58FF" fill-opacity="0.2"/>
</svg>
